<svg width="36" height="36" viewBox="0 0 36 36" fill="none" xmlns="http://www.w3.org/2000/svg">
<path d="M12.0601 10.5955L15.3879 10.0957L14.9236 20.4331L14.966 20.4267L18.3977 9.64363L21.7255 9.14381L19.0038 23.8986L16.7994 24.2297L18.8601 13.0582L18.8177 13.0646L15.0613 24.4908L13.1113 24.7836L13.4763 13.8668L13.4339 13.8732L11.3732 25.0447L9.33836 25.3503L12.0601 10.5955Z" fill="white"/>
<path d="M1.89449 26.0586L27.9684 22.1591L18.4235 26.6988V24.6618L1.66168 27.1644L1.89449 26.0586Z" fill="white"/>
<path d="M3.92517 6.85436C6.16002 4.03217 9.19168 1.94699 12.6266 0.869538C16.0614 -0.207918 19.7409 -0.227881 23.1873 0.812235C26.6337 1.85235 29.6878 3.9045 31.9531 6.70228C34.2185 9.50006 35.5904 12.9142 35.8909 16.5016C36.1913 20.0889 35.4064 23.6838 33.638 26.8194C31.8696 29.955 29.1994 32.4866 25.974 34.0855C22.7487 35.6844 19.1171 36.2767 15.5509 35.7856C11.9846 35.2945 8.64836 33.7427 5.9752 31.3316L7.36287 29.7931C9.72754 31.926 12.6788 33.2988 15.8335 33.7332C18.9882 34.1676 22.2007 33.6436 25.0538 32.2292C27.907 30.8148 30.269 28.5754 31.8334 25.8016C33.3977 23.0279 34.092 19.8479 33.8263 16.6745C33.5605 13.5011 32.3469 10.481 30.3429 8.00604C28.339 5.53112 25.6374 3.71579 22.5887 2.7957C19.54 1.87562 16.2852 1.89328 13.2467 2.84639C10.2082 3.79951 7.52636 5.64405 5.54941 8.14057L3.92517 6.85436Z" fill="white"/>
<path d="M9.68258 29.3766C11.8738 30.9786 14.481 31.9138 17.1909 32.0696C19.9007 32.2255 22.598 31.5955 24.9584 30.2553C27.3189 28.9151 29.242 26.9218 30.4968 24.5149C31.7516 22.108 32.2846 19.3899 32.0318 16.6873C31.779 13.9848 30.751 11.4127 29.0716 9.2803C27.3921 7.14789 25.1326 5.54586 22.5645 4.66674C19.9965 3.78763 17.2292 3.66884 14.5952 4.32466C11.9613 4.98047 9.57276 6.38298 7.71674 8.36363L9.07774 9.63899C10.6881 7.92048 12.7605 6.70359 15.0459 6.13457C17.3312 5.56555 19.7323 5.66862 21.9604 6.43139C24.1886 7.19415 26.1491 8.58416 27.6063 10.4343C29.0635 12.2845 29.9554 14.5162 30.1747 16.861C30.3941 19.2059 29.9316 21.5643 28.8429 23.6526C27.7542 25.741 26.0855 27.4705 24.0375 28.6333C21.9895 29.7962 19.6492 30.3428 17.298 30.2076C14.9467 30.0723 12.6846 29.2609 10.7834 27.8709L9.68258 29.3766Z" fill="#B1FF73"/>
</svg>
